# xmcd
#
# Track frame offsets:
#	150
#	16192
#	28529
#	42046
#	53772
#	67077
#	78584
#	97143
#	111841
#	124477
#	135242
#	151620
#	160823
#	169968
#	184031
#	195856
#	212071
#	227429
#	240425
#	253284
#	274175
#
# Disc length: 3880 seconds
#
# Revision: 1
# Processed by: cddbd v1.5.2PL0 Copyright (c) Steve Scherf et al.
# Submitted via: audiograbber 1.83.01
#
DISCID=150f2615
DTITLE=Various Artist - The Sound of Nashville CD3
DYEAR=1900
DGENRE=
TTITLE0=Can't Fight The Moonlight
TTITLE1=9 To 5
TTITLE2=Annie's Song
TTITLE3=Ring Of Fire
TTITLE4=D-I-V-O-R-
TTITLE5=oad Again
TTITLE6=Stuck Like Glue
TTITLE7=Tennessee Flat Top Box
TTITLE8=Barefoot Blue Jean Night
TTITLE9=Foggy Mountain Breakdown
TTITLE10=I Don't Want To Be
TTITLE11=Country Sunshine
TTITLE12=Yakety Axe
TTITLE13=Angel Eyes
TTITLE14=The Most Beautiful Girl
TTITLE15=No Place That Far
TTITLE16=Hush Hush
TTITLE17=Rose Garden
TTITLE18=Devil Woman
TTITLE19=Something In Red
TTITLE20=Wanted
EXTD=
EXTT0=
EXTT1=
EXTT2=
EXTT3=
EXTT4=
EXTT5=
EXTT6=
EXTT7=
EXTT8=
EXTT9=
EXTT10=
EXTT11=
EXTT12=
EXTT13=
EXTT14=
EXTT15=
EXTT16=
EXTT17=
EXTT18=
EXTT19=
EXTT20=
PLAYORDER=
